<svg xmlns="http://www.w3.org/2000/svg" viewBox="0 0 619.68 621.04"><defs><style>.cls-1{fill:#231f20;}</style></defs><title>Asset 1</title><g id="Layer_2" data-name="Layer 2"><g id="Layer_1-2" data-name="Layer 1"><path class="cls-1" d="M246.35,230.08l47.18,11.72c8.41,2.09,16.82,4.13,25.22,6.25,10.12,2.55,16.8,10.28,17.39,20.7q2,36.3,3.72,72.62c.48,10.56-4.48,17.4-15.88,22h47.88v-4q0-21.24,0-42.49c0-9.83,5.3-15.16,15.12-15.17q51.86,0,103.72,0h5.17v-4.24q0-21.43,0-42.87c0-9.41,5.31-14.87,14.62-14.88q53-.06,106,0c1,0,2,.14,3.16.24V621H.19c-.07-1.49-.18-2.85-.18-4.21Q0,560,0,503.14c0-10.39,5.08-15.43,15.57-15.43q51.48,0,103,0H124V443.57c0-13.92,4-17.87,18.07-17.87H248v-4.53q0-21.24,0-42.49c0-9.91,5.18-15,15.19-15l49.37,0a8.53,8.53,0,0,0,1.29-.32c-1.32-.58-2.26-1-3.18-1.41-7.5-3.63-11.91-9.52-12.4-17.91q-1.62-27.51-2.88-55c-.12-2.68-1-3.7-3.52-4.29-29.41-6.84-58.79-13.81-88.19-20.71-12.27-2.88-18.93-13.08-16.6-25.52q8.91-47.36,17.79-94.71c2.53-13.43,11.58-20,25.26-18.45q33.06,3.78,66.11,7.63a13.26,13.26,0,0,0,9-1.83q19.76-12,39.78-23.63c7.5-4.35,15.23-4.15,22.42.69s10,11.72,9,20.19a19.46,19.46,0,0,1-9.62,14.9c-17.05,10.23-34.05,20.55-51.38,30.3-3.61,2-8.56,2.65-12.81,2.42-15-.82-30-2.29-45.47-3.55C253.58,191.7,250,210.68,246.35,230.08Z"/><path class="cls-1" d="M306.77,52.79A52.53,52.53,0,1,1,254.37,0,52.71,52.71,0,0,1,306.77,52.79Z"/><path class="cls-1" d="M531.28,121.31,458.66,151c-5.86,2.39-7.06,1.88-9.47-4-2.88-7.08-5.78-14.15-8.65-21.23-2-4.91-1.39-6.38,3.64-8.44q34.63-14.18,69.29-28.32c1.17-.48,2.33-1,3.89-1.65l-7.62-18.72c-.48-1.18-1.31-2.33-1.39-3.53-.11-1.88-.38-4.42.65-5.5s3.81-1.35,5.41-.79c11.65,4.09,23.2,8.48,34.78,12.78,8.47,3.14,16.95,6.27,25.41,9.45,4.21,1.57,5.06,3.59,3.15,7.67-9,19.26-18,38.52-27.27,57.69-.78,1.62-3.1,3.55-4.62,3.49s-3.64-2.15-4.38-3.83C537.92,138,534.75,129.8,531.28,121.31Z"/><path class="cls-1" d="M188.41,266.74c5.06,5.16,11.47,6.45,17.82,7.91,7.57,1.73,15.11,3.62,22.7,5.28,2,.44,2.72,1.24,2.78,3.28.47,16.07,1.07,32.13,1.56,48.19a20.27,20.27,0,0,1-6,15.23Q201.7,373,176.07,399.32c-8.46,8.65-21.52,8.86-29.86.74s-8.53-21.05-.08-29.86q21.06-21.94,42.41-43.61a8,8,0,0,0,2.39-6.77C190,302.13,189.23,284.44,188.41,266.74Z"/><path class="cls-1" d="M197.54,136.86c-2,10.73-3.92,20.85-5.84,31-1.12,5.88-2.16,11.78-3.52,17.6-.31,1.31-1.64,3.11-2.8,3.37-9.16,2.13-14.53,8.06-18.83,16.15-5.86,11-12.65,21.53-19.24,32.13C142.37,245,135,248.29,125.76,247a21,21,0,0,1-14.37-31.6c10-16.59,19.83-33.29,30.17-49.65a24.7,24.7,0,0,1,9.76-8.69c14.05-6.61,28.41-12.53,42.66-18.71Z"/></g></g></svg>